<svg width="26" height="26" viewBox="0 0 26 26" fill="none" xmlns="http://www.w3.org/2000/svg">
<path d="M7.78266 1.09302C9.79649 0.209876 12.0016 -0.147268 14.1913 0.0550914C16.3809 0.257451 18.4833 1.01268 20.3012 2.24994C18.798 4.28833 16.9056 6.00836 14.7333 7.31049C12.9077 4.74684 10.5331 2.62276 7.78266 1.09302ZM12.9471 8.25422C11.063 5.68262 8.56584 3.62288 5.6828 2.26233C3.16443 3.9804 1.32716 6.52608 0.489929 9.45746C1.96615 9.81816 3.48035 10.0002 5 9.99976C7.74441 10.0024 10.4564 9.40671 12.9471 8.25422ZM25.9747 12.2114C25.7733 8.88765 24.3013 5.76865 21.8635 3.50031C20.2229 5.70668 18.1682 7.5723 15.8142 8.99292C16.4996 10.1802 17.0666 11.4319 17.507 12.7301C20.2649 11.9834 23.1462 11.8069 25.9747 12.2114L25.9747 12.2114ZM18.0585 14.6528C18.4288 16.2289 18.6154 17.8426 18.6146 19.4616C18.6134 21.353 18.3576 23.2356 17.8541 25.0588C20.0634 24.1654 21.9854 22.6832 23.411 20.7734C24.8365 18.8637 25.7111 16.5995 25.9394 14.2274C23.3115 13.8174 20.6269 13.9624 18.0585 14.6528H18.0585ZM15.6034 13.346C15.2005 12.1641 14.6817 11.025 14.0544 9.94532C11.2288 11.3013 8.13412 12.0034 5 11.9998C3.34803 12.0003 1.70178 11.8057 0.0954624 11.42C-0.166093 13.557 0.107747 15.7255 0.892344 17.7304C1.67694 19.7352 2.94768 21.5136 4.59021 22.9054C7.00986 18.5124 10.9138 15.1238 15.6034 13.346ZM6.22296 24.09C9.01129 25.7962 12.3403 26.3885 15.546 25.7488C16.2524 23.7279 16.6136 21.6024 16.6146 19.4616C16.6147 18.0543 16.4582 16.6514 16.148 15.2787C11.8933 16.9359 8.3725 20.0616 6.22296 24.09Z" fill="#A9A9A9"/>
</svg>
