<svg width="24" height="27" viewBox="0 0 24 27" fill="none" xmlns="http://www.w3.org/2000/svg">
<path d="M24 24C24 24.2652 23.8946 24.5196 23.7071 24.7071C23.5196 24.8946 23.2652 25 23 25C21.9395 24.9988 20.9228 24.577 20.1729 23.8271C19.423 23.0772 19.0012 22.0605 19 21V20C18.9994 19.4698 18.7885 18.9614 18.4135 18.5865C18.0386 18.2115 17.5302 18.0006 17 18H15.5V23C15.5006 23.5303 15.7115 24.0386 16.0865 24.4136C16.4614 24.7885 16.9698 24.9994 17.5 25C17.7652 25 18.0196 25.1054 18.2071 25.2929C18.3946 25.4804 18.5 25.7348 18.5 26C18.5 26.2652 18.3946 26.5196 18.2071 26.7071C18.0196 26.8947 17.7652 27 17.5 27C16.4395 26.9988 15.4228 26.577 14.6729 25.8271C13.923 25.0772 13.5012 24.0605 13.5 23V18H10.5V23C10.4988 24.0605 10.077 25.0772 9.32709 25.8271C8.5772 26.577 7.56049 26.9988 6.5 27C6.23478 27 5.98043 26.8947 5.79289 26.7071C5.60536 26.5196 5.5 26.2652 5.5 26C5.5 25.7348 5.60536 25.4804 5.79289 25.2929C5.98043 25.1054 6.23478 25 6.5 25C7.03025 24.9994 7.5386 24.7885 7.91354 24.4136C8.28849 24.0386 8.49939 23.5303 8.5 23V18H7C6.46975 18.0006 5.9614 18.2115 5.58646 18.5865C5.21151 18.9614 5.00061 19.4698 5 20V21C4.99879 22.0605 4.57697 23.0772 3.82709 23.8271C3.0772 24.577 2.06049 24.9988 1 25C0.734784 25 0.48043 24.8947 0.292893 24.7071C0.105357 24.5196 0 24.2652 0 24C0 23.7348 0.105357 23.4804 0.292893 23.2929C0.48043 23.1054 0.734784 23 1 23C1.53025 22.9994 2.0386 22.7885 2.41354 22.4136C2.78849 22.0386 2.99939 21.5303 3 21V20C3.00039 19.3285 3.16985 18.668 3.49275 18.0792C3.81564 17.4904 4.28158 16.9925 4.8476 16.6312C3.96488 15.9814 3.24726 15.1332 2.75262 14.155C2.25798 13.1769 2.00018 12.0961 2 11V10C1.99763 8.75453 2.32957 7.53124 2.96118 6.45778C2.65557 5.47213 2.55757 4.43384 2.67337 3.40841C2.78917 2.38299 3.11625 1.39269 3.63397 0.500019C3.72173 0.347991 3.84797 0.221747 3.99999 0.133977C4.15201 0.0462078 4.32446 6.71941e-06 4.5 1.8744e-05C5.6649 -0.00258068 6.81426 0.267348 7.85622 0.788233C8.89819 1.30912 9.80386 2.06651 10.5009 2.99989L13.4991 3.00002C14.1961 2.0666 15.1018 1.30916 16.1437 0.788255C17.1857 0.267346 18.3351 -0.00259097 19.5 1.8744e-05C19.6755 6.71941e-06 19.848 0.0462078 20 0.133977C20.152 0.221747 20.2783 0.347991 20.366 0.500019C20.8838 1.39269 21.2108 2.38299 21.3266 3.40841C21.4424 4.43384 21.3444 5.47213 21.0388 6.45778C21.6704 7.53124 22.0024 8.75453 22 10V11C21.9998 12.0961 21.742 13.1769 21.2474 14.155C20.7527 15.1332 20.0351 15.9814 19.1524 16.6312C19.7184 16.9925 20.1844 17.4904 20.5073 18.0792C20.8301 18.668 20.9996 19.3285 21 20V21C21.0006 21.5303 21.2115 22.0386 21.5865 22.4136C21.9614 22.7885 22.4698 22.9994 23 23C23.2652 23 23.5196 23.1054 23.7071 23.2929C23.8946 23.4805 24 23.7348 24 24Z" fill="#A9A9A9"/>
</svg>
