<svg width="24" height="24" viewBox="0 0 24 24" fill="none" xmlns="http://www.w3.org/2000/svg">
<path d="M22 0H2C1.46975 0.000606423 0.961398 0.211515 0.586456 0.586456C0.211515 0.961398 0.000606423 1.46975 0 2V22C0.000606423 22.5302 0.211515 23.0386 0.586456 23.4135C0.961398 23.7885 1.46975 23.9994 2 24H22C22.5302 23.9994 23.0386 23.7885 23.4135 23.4135C23.7885 23.0386 23.9994 22.5302 24 22V2C23.9994 1.46975 23.7885 0.961398 23.4135 0.586456C23.0386 0.211515 22.5302 0.000606423 22 0ZM8 18.0001C8 18.2653 7.89464 18.5197 7.70711 18.7072C7.51957 18.8948 7.26522 19.0001 7 19.0001C6.73478 19.0001 6.48043 18.8948 6.29289 18.7072C6.10536 18.5197 6 18.2653 6 18.0001V10.0001C6 9.7349 6.10536 9.48055 6.29289 9.29301C6.48043 9.10547 6.73478 9.00012 7 9.00012C7.26522 9.00012 7.51957 9.10547 7.70711 9.29301C7.89464 9.48055 8 9.7349 8 10.0001V18.0001ZM7 7.50012C6.70333 7.50012 6.41332 7.41214 6.16665 7.24732C5.91997 7.0825 5.72771 6.84823 5.61418 6.57414C5.50065 6.30005 5.47094 5.99845 5.52882 5.70748C5.5867 5.41651 5.72956 5.14924 5.93934 4.93946C6.14912 4.72968 6.41639 4.58682 6.70736 4.52894C6.99834 4.47106 7.29994 4.50077 7.57403 4.6143C7.84811 4.72783 8.08238 4.92009 8.2472 5.16676C8.41203 5.41344 8.5 5.70345 8.5 6.00012C8.5 6.39794 8.34196 6.77947 8.06066 7.06078C7.77936 7.34208 7.39782 7.50012 7 7.50012ZM19 18.0001C19 18.2653 18.8946 18.5197 18.7071 18.7072C18.5196 18.8948 18.2652 19.0001 18 19.0001C17.7348 19.0001 17.4804 18.8948 17.2929 18.7072C17.1054 18.5197 17 18.2653 17 18.0001V13.5001C17 12.8371 16.7366 12.2012 16.2678 11.7324C15.7989 11.2635 15.163 11.0001 14.5 11.0001C13.837 11.0001 13.2011 11.2635 12.7322 11.7324C12.2634 12.2012 12 12.8371 12 13.5001V18.0001C12 18.2653 11.8946 18.5197 11.7071 18.7072C11.5196 18.8948 11.2652 19.0001 11 19.0001C10.7348 19.0001 10.4804 18.8948 10.2929 18.7072C10.1054 18.5197 10 18.2653 10 18.0001V10.0001C9.99992 9.7543 10.0904 9.51707 10.2542 9.33376C10.418 9.15044 10.6435 9.0339 10.8878 9.00639C11.1321 8.97889 11.3779 9.04235 11.5784 9.18465C11.7788 9.32695 11.9198 9.53812 11.9744 9.7778C12.6506 9.31822 13.4394 9.05169 14.2559 9.00688C15.0723 8.96206 15.8855 9.14066 16.608 9.52347C17.3305 9.90627 17.935 10.4788 18.3565 11.1795C18.7779 11.8801 19.0004 12.6825 19 13.5001V18.0001Z" fill="#A9A9A9"/>
</svg>
